<svg width="48" height="48" viewBox="0 0 48 48" fill="none" xmlns="http://www.w3.org/2000/svg">
<path d="M24 4C18.5 4 14 8.5 14 14V18H18V14C18 10.7 20.7 8 24 8C27.3 8 30 10.7 30 14H34C34 8.5 29.5 4 24 4Z" fill="#F5F5F5"/>
<path d="M36 44H12C9.8 44 8 42.2 8 40V22C8 19.8 9.8 18 12 18H36C38.2 18 40 19.8 40 22V40C40 42.2 38.2 44 36 44Z" fill="#FF9A1C"/>
<path d="M24 34C25.6569 34 27 32.6569 27 31C27 29.3431 25.6569 28 24 28C22.3431 28 21 29.3431 21 31C21 32.6569 22.3431 34 24 34Z" fill="#342614"/>
</svg>
