<svg width="405" height="301" viewBox="0 0 405 301" fill="none" xmlns="http://www.w3.org/2000/svg">
<path d="M204.372 171.172L172 177.731L192.658 201.094L225.386 194.462L204.372 171.172Z" fill="#535355" fill-opacity="0.62"/>
<path d="M212.812 162.126L180 168.881L201.116 192.1L233.438 185.445L212.812 162.126Z" fill="white" stroke="white"/>
<path d="M84.657 263H79.7138L87.2457 241.182H93.1903L100.712 263H95.7685L90.3033 246.168H90.1328L84.657 263ZM84.348 254.424H96.0241V258.025H84.348V254.424ZM103.338 263V241.182H107.951V259.197H117.304V263H103.338ZM133.977 248.234C133.828 247.716 133.618 247.258 133.348 246.86C133.078 246.455 132.748 246.114 132.358 245.837C131.974 245.553 131.534 245.337 131.037 245.188C130.547 245.038 130.003 244.964 129.407 244.964C128.292 244.964 127.311 245.241 126.466 245.795C125.628 246.349 124.975 247.155 124.506 248.213C124.037 249.264 123.803 250.55 123.803 252.07C123.803 253.589 124.034 254.882 124.495 255.947C124.957 257.013 125.61 257.826 126.456 258.387C127.301 258.941 128.299 259.218 129.449 259.218C130.493 259.218 131.385 259.033 132.123 258.664C132.869 258.288 133.437 257.759 133.828 257.077C134.225 256.395 134.424 255.589 134.424 254.658L135.362 254.797H129.737V251.324H138.867V254.072C138.867 255.99 138.462 257.638 137.652 259.016C136.843 260.386 135.728 261.445 134.307 262.19C132.887 262.929 131.26 263.298 129.428 263.298C127.382 263.298 125.586 262.847 124.037 261.945C122.489 261.036 121.282 259.747 120.415 258.078C119.556 256.402 119.126 254.413 119.126 252.112C119.126 250.344 119.382 248.767 119.893 247.382C120.412 245.99 121.136 244.811 122.066 243.845C122.997 242.879 124.08 242.144 125.316 241.64C126.551 241.136 127.89 240.884 129.332 240.884C130.568 240.884 131.718 241.065 132.784 241.427C133.849 241.782 134.794 242.286 135.618 242.94C136.449 243.593 137.127 244.371 137.652 245.273C138.178 246.168 138.515 247.155 138.664 248.234H133.977ZM162.382 252.091C162.382 254.47 161.931 256.494 161.029 258.163C160.134 259.832 158.912 261.107 157.364 261.988C155.823 262.862 154.09 263.298 152.165 263.298C150.226 263.298 148.486 262.858 146.945 261.977C145.404 261.097 144.186 259.822 143.291 258.153C142.396 256.484 141.948 254.463 141.948 252.091C141.948 249.712 142.396 247.688 143.291 246.018C144.186 244.349 145.404 243.078 146.945 242.205C148.486 241.324 150.226 240.884 152.165 240.884C154.09 240.884 155.823 241.324 157.364 242.205C158.912 243.078 160.134 244.349 161.029 246.018C161.931 247.688 162.382 249.712 162.382 252.091ZM157.705 252.091C157.705 250.55 157.474 249.25 157.012 248.192C156.558 247.134 155.915 246.331 155.084 245.784C154.253 245.237 153.28 244.964 152.165 244.964C151.05 244.964 150.077 245.237 149.246 245.784C148.415 246.331 147.769 247.134 147.307 248.192C146.852 249.25 146.625 250.55 146.625 252.091C146.625 253.632 146.852 254.932 147.307 255.99C147.769 257.048 148.415 257.851 149.246 258.398C150.077 258.945 151.05 259.218 152.165 259.218C153.28 259.218 154.253 258.945 155.084 258.398C155.915 257.851 156.558 257.048 157.012 255.99C157.474 254.932 157.705 253.632 157.705 252.091ZM176.503 263H171.559L179.091 241.182H185.036L192.557 263H187.614L182.149 246.168H181.979L176.503 263ZM176.194 254.424H187.87V258.025H176.194V254.424ZM213.409 248.82H208.743C208.657 248.217 208.483 247.68 208.221 247.212C207.958 246.736 207.62 246.331 207.208 245.997C206.797 245.663 206.321 245.408 205.781 245.23C205.248 245.053 204.669 244.964 204.044 244.964C202.915 244.964 201.931 245.244 201.093 245.805C200.255 246.359 199.605 247.169 199.144 248.234C198.682 249.293 198.451 250.578 198.451 252.091C198.451 253.646 198.682 254.953 199.144 256.011C199.613 257.07 200.266 257.869 201.104 258.408C201.942 258.948 202.912 259.218 204.012 259.218C204.63 259.218 205.202 259.136 205.728 258.973C206.26 258.81 206.733 258.572 207.145 258.259C207.556 257.94 207.897 257.553 208.167 257.098C208.444 256.643 208.636 256.125 208.743 255.543L213.409 255.564C213.288 256.565 212.986 257.531 212.503 258.462C212.027 259.385 211.385 260.212 210.575 260.944C209.772 261.668 208.814 262.244 207.699 262.67C206.591 263.089 205.337 263.298 203.938 263.298C201.992 263.298 200.252 262.858 198.718 261.977C197.191 261.097 195.983 259.822 195.096 258.153C194.215 256.484 193.775 254.463 193.775 252.091C193.775 249.712 194.222 247.688 195.117 246.018C196.012 244.349 197.226 243.078 198.76 242.205C200.294 241.324 202.02 240.884 203.938 240.884C205.202 240.884 206.374 241.061 207.453 241.416C208.54 241.771 209.502 242.29 210.341 242.972C211.179 243.646 211.86 244.474 212.386 245.454C212.919 246.434 213.26 247.556 213.409 248.82ZM220.067 263H215.124L222.656 241.182H228.6L236.122 263H231.179L225.713 246.168H225.543L220.067 263ZM219.758 254.424H231.434V258.025H219.758V254.424ZM246.482 263H238.748V241.182H246.546C248.741 241.182 250.63 241.619 252.214 242.492C253.798 243.359 255.016 244.605 255.868 246.232C256.727 247.858 257.157 249.804 257.157 252.07C257.157 254.342 256.727 256.295 255.868 257.929C255.016 259.562 253.79 260.816 252.192 261.69C250.602 262.563 248.698 263 246.482 263ZM243.361 259.048H246.29C247.654 259.048 248.801 258.806 249.732 258.323C250.669 257.833 251.372 257.077 251.841 256.054C252.317 255.024 252.555 253.696 252.555 252.07C252.555 250.457 252.317 249.14 251.841 248.117C251.372 247.094 250.673 246.342 249.742 245.859C248.812 245.376 247.665 245.134 246.301 245.134H243.361V259.048ZM260.574 263V241.182H275.276V244.985H265.187V250.184H274.519V253.987H265.187V259.197H275.318V263H260.574ZM278.943 241.182H284.632L290.641 255.841H290.896L296.905 241.182H302.594V263H298.119V248.799H297.938L292.292 262.893H289.245L283.599 248.746H283.418V263H278.943V241.182ZM305.116 241.182H310.283L315.258 250.578H315.471L320.446 241.182H325.613L317.655 255.287V263H313.074V255.287L305.116 241.182Z" fill="#FFFEFE"/>
<path d="M219.458 151.696L186.171 159.727L208.433 183.007L242.086 174.887L219.458 151.696Z" fill="#535355"/>
<path d="M178 71.5L88 232.5L132.5 232.5L200.5 109L178 71.5Z" fill="white" stroke="white"/>
<path opacity="0.3" d="M167.998 69.394L77.9064 230.875L122.608 230.623L190.498 106.894L167.998 69.394Z" fill="white" stroke="white"/>
<path opacity="0.3" d="M206.497 127.394L169.997 66.394C172.109 62.971 175.345 56.8349 178.498 52.894C180.498 50.394 182.497 48.4348 185.998 46.894C185.998 46.894 188.498 45.8532 193.034 45.8533C197.569 45.8533 201.711 46.8372 206.998 52.894C212.285 58.9508 231.145 90.1316 231.145 90.1316L206.497 127.394Z" fill="#F08829" stroke="#F08829"/>
<path opacity="0.3" d="M232.998 92.894L208.497 130.382L265.734 231.352L311.215 231.352L232.998 92.894Z" fill="#EAE6E6" stroke="#E4E1E1"/>
<path d="M118.966 282V274.727H119.63V281.403H123.096V282H118.966ZM127.591 282V274.727H131.81V275.324H128.255V278.062H131.586V278.658H128.255V281.403H131.881V282H127.591ZM136.539 274.727L138.812 281.137H138.876L141.148 274.727H141.844L139.199 282H138.489L135.843 274.727H136.539ZM146.091 282V274.727H150.31V275.324H146.755V278.062H150.086V278.658H146.755V281.403H150.381V282H146.091ZM155.028 282V274.727H155.692V281.403H159.158V282H155.028ZM174.313 274.727H174.977V279.543C174.977 280.037 174.861 280.48 174.629 280.871C174.397 281.259 174.074 281.566 173.66 281.79C173.248 282.013 172.768 282.124 172.222 282.124C171.677 282.124 171.198 282.012 170.783 281.787C170.369 281.562 170.046 281.255 169.814 280.867C169.582 280.479 169.466 280.037 169.466 279.543V274.727H170.13V279.496C170.13 279.882 170.216 280.227 170.389 280.53C170.562 280.83 170.805 281.067 171.117 281.24C171.432 281.413 171.8 281.499 172.222 281.499C172.643 281.499 173.011 281.413 173.326 281.24C173.641 281.067 173.884 280.83 174.054 280.53C174.227 280.227 174.313 279.882 174.313 279.496V274.727ZM179.907 282V274.727H182.255C182.771 274.727 183.202 274.827 183.547 275.026C183.895 275.222 184.157 275.49 184.332 275.828C184.51 276.167 184.598 276.548 184.598 276.972C184.598 277.395 184.511 277.778 184.336 278.119C184.16 278.457 183.9 278.726 183.554 278.925C183.209 279.121 182.779 279.219 182.265 279.219H180.419V278.623H182.248C182.629 278.623 182.945 278.552 183.196 278.41C183.447 278.265 183.634 278.069 183.757 277.82C183.882 277.572 183.945 277.289 183.945 276.972C183.945 276.654 183.882 276.371 183.757 276.123C183.634 275.874 183.445 275.679 183.192 275.537C182.941 275.395 182.623 275.324 182.237 275.324H180.571V282H179.907ZM194.288 274.727H195.055L197.211 278.179H197.275L199.43 274.727H200.197L197.573 278.85V282H196.912V278.85L194.288 274.727ZM210.065 278.364C210.065 279.121 209.93 279.781 209.66 280.342C209.39 280.9 209.019 281.334 208.545 281.641C208.074 281.947 207.532 282.099 206.919 282.099C206.306 282.099 205.762 281.947 205.289 281.641C204.818 281.334 204.447 280.9 204.177 280.342C203.91 279.781 203.776 279.121 203.776 278.364C203.776 277.606 203.91 276.948 204.177 276.389C204.447 275.828 204.819 275.395 205.292 275.089C205.766 274.782 206.308 274.628 206.919 274.628C207.532 274.628 208.074 274.782 208.545 275.089C209.019 275.395 209.39 275.828 209.66 276.389C209.93 276.948 210.065 277.606 210.065 278.364ZM209.419 278.364C209.419 277.713 209.31 277.155 209.092 276.691C208.874 276.225 208.577 275.868 208.201 275.622C207.824 275.376 207.397 275.253 206.919 275.253C206.443 275.253 206.017 275.376 205.64 275.622C205.264 275.868 204.966 276.223 204.745 276.688C204.528 277.152 204.419 277.71 204.419 278.364C204.419 279.015 204.528 279.572 204.745 280.036C204.963 280.5 205.26 280.857 205.637 281.105C206.013 281.351 206.44 281.474 206.919 281.474C207.397 281.474 207.824 281.351 208.201 281.105C208.579 280.859 208.878 280.504 209.096 280.04C209.313 279.573 209.421 279.015 209.419 278.364ZM219.518 274.727H220.182V279.543C220.182 280.037 220.066 280.48 219.834 280.871C219.602 281.259 219.279 281.566 218.865 281.79C218.453 282.013 217.974 282.124 217.427 282.124C216.882 282.124 216.403 282.012 215.988 281.787C215.574 281.562 215.251 281.255 215.019 280.867C214.787 280.479 214.671 280.037 214.671 279.543V274.727H215.335V279.496C215.335 279.882 215.421 280.227 215.594 280.53C215.767 280.83 216.01 281.067 216.322 281.24C216.637 281.413 217.005 281.499 217.427 281.499C217.848 281.499 218.216 281.413 218.531 281.24C218.846 281.067 219.089 280.83 219.259 280.53C219.432 280.227 219.518 279.882 219.518 279.496V274.727ZM225.112 282V274.727H227.46C227.976 274.727 228.407 274.821 228.752 275.008C229.1 275.192 229.362 275.449 229.537 275.778C229.715 276.105 229.803 276.48 229.803 276.904C229.803 277.328 229.715 277.702 229.537 278.026C229.362 278.351 229.102 278.604 228.756 278.786C228.41 278.969 227.982 279.06 227.47 279.06H225.471V278.452H227.453C227.831 278.452 228.146 278.39 228.397 278.264C228.651 278.139 228.839 277.96 228.962 277.728C229.087 277.496 229.15 277.221 229.15 276.904C229.15 276.587 229.087 276.31 228.962 276.073C228.836 275.834 228.647 275.649 228.394 275.519C228.143 275.389 227.825 275.324 227.442 275.324H225.776V282H225.112ZM228.319 278.719L230.109 282H229.342L227.57 278.719H228.319ZM244.182 276.545C244.142 276.141 243.963 275.819 243.646 275.58C243.329 275.34 242.93 275.221 242.449 275.221C242.111 275.221 241.813 275.279 241.555 275.395C241.299 275.511 241.098 275.672 240.951 275.878C240.806 276.081 240.734 276.313 240.734 276.574C240.734 276.766 240.776 276.934 240.858 277.078C240.941 277.223 241.053 277.347 241.192 277.451C241.334 277.553 241.491 277.64 241.661 277.714C241.834 277.787 242.008 277.849 242.183 277.898L242.95 278.119C243.182 278.183 243.414 278.264 243.646 278.364C243.878 278.463 244.09 278.589 244.282 278.74C244.476 278.889 244.631 279.073 244.747 279.29C244.865 279.506 244.925 279.765 244.925 280.068C244.925 280.456 244.824 280.806 244.623 281.116C244.421 281.426 244.133 281.672 243.756 281.854C243.38 282.034 242.929 282.124 242.403 282.124C241.908 282.124 241.479 282.043 241.114 281.879C240.75 281.714 240.463 281.485 240.255 281.194C240.046 280.903 239.929 280.565 239.903 280.182H240.585C240.609 280.468 240.703 280.711 240.869 280.91C241.035 281.109 241.25 281.26 241.515 281.364C241.781 281.466 242.077 281.517 242.403 281.517C242.765 281.517 243.087 281.457 243.369 281.336C243.653 281.213 243.876 281.042 244.037 280.825C244.2 280.604 244.282 280.349 244.282 280.058C244.282 279.811 244.218 279.605 244.09 279.44C243.962 279.272 243.783 279.131 243.554 279.017C243.327 278.903 243.063 278.803 242.762 278.715L241.892 278.46C241.321 278.289 240.879 278.054 240.564 277.753C240.249 277.452 240.091 277.069 240.091 276.602C240.091 276.212 240.196 275.868 240.404 275.572C240.615 275.274 240.899 275.042 241.256 274.876C241.616 274.708 242.02 274.624 242.467 274.624C242.919 274.624 243.319 274.707 243.667 274.873C244.015 275.039 244.291 275.267 244.495 275.558C244.701 275.847 244.811 276.176 244.825 276.545H244.182ZM249.523 282V274.727H250.187V278.644H250.251L253.802 274.727H254.675L251.568 278.09L254.661 282H253.851L251.156 278.552L250.187 279.638V282H249.523ZM259.593 274.727V282H258.929V274.727H259.593ZM264.526 282V274.727H265.191V281.403H268.656V282H264.526ZM273.151 282V274.727H273.816V281.403H277.281V282H273.151ZM285.725 276.545C285.685 276.141 285.506 275.819 285.189 275.58C284.872 275.34 284.473 275.221 283.992 275.221C283.654 275.221 283.356 275.279 283.097 275.395C282.842 275.511 282.641 275.672 282.494 275.878C282.349 276.081 282.277 276.313 282.277 276.574C282.277 276.766 282.319 276.934 282.401 277.078C282.484 277.223 282.596 277.347 282.735 277.451C282.877 277.553 283.034 277.64 283.204 277.714C283.377 277.787 283.551 277.849 283.726 277.898L284.493 278.119C284.725 278.183 284.957 278.264 285.189 278.364C285.421 278.463 285.633 278.589 285.825 278.74C286.019 278.889 286.174 279.073 286.29 279.29C286.408 279.506 286.468 279.765 286.468 280.068C286.468 280.456 286.367 280.806 286.166 281.116C285.964 281.426 285.676 281.672 285.299 281.854C284.923 282.034 284.472 282.124 283.946 282.124C283.451 282.124 283.022 282.043 282.657 281.879C282.293 281.714 282.006 281.485 281.798 281.194C281.589 280.903 281.472 280.565 281.446 280.182H282.128C282.152 280.468 282.246 280.711 282.412 280.91C282.578 281.109 282.793 281.26 283.058 281.364C283.324 281.466 283.619 281.517 283.946 281.517C284.308 281.517 284.63 281.457 284.912 281.336C285.196 281.213 285.419 281.042 285.58 280.825C285.743 280.604 285.825 280.349 285.825 280.058C285.825 279.811 285.761 279.605 285.633 279.44C285.505 279.272 285.326 279.131 285.097 279.017C284.869 278.903 284.606 278.803 284.305 278.715L283.435 278.46C282.864 278.289 282.422 278.054 282.107 277.753C281.792 277.452 281.634 277.069 281.634 276.602C281.634 276.212 281.739 275.868 281.947 275.572C282.158 275.274 282.442 275.042 282.799 274.876C283.159 274.708 283.563 274.624 284.01 274.624C284.462 274.624 284.862 274.707 285.21 274.873C285.558 275.039 285.834 275.267 286.038 275.558C286.244 275.847 286.354 276.176 286.368 276.545H285.725Z" fill="#FFFEFE"/>
<path d="M216.5 129.5L180 68.5C182.111 65.0769 185.347 58.9408 188.5 55C190.5 52.5 192.5 50.5407 196 49C196 49 198.5 47.9592 203.036 47.9592C207.572 47.9592 211.713 48.9432 217 55C222.287 61.0568 241.147 92.2375 241.147 92.2375L216.5 129.5Z" fill="#F08829" stroke="#F08829"/>
<path d="M243 95L218.5 132.488L275.5 232.5L321.323 232.5L243 95Z" fill="white" stroke="white"/>
<path d="M226.812 144.126L194 150.881L215.116 174.1L247.438 167.445L226.812 144.126Z" fill="white" stroke="white"/>
</svg>
