<svg width="874" height="265" viewBox="0 0 874 265" fill="none" xmlns="http://www.w3.org/2000/svg">
<g clip-path="url(#clip0_23_2)">
<path d="M149.275 132.046L116.904 139.028L137.562 163.893L170.29 156.835L149.275 132.046Z" fill="#535355" fill-opacity="0.62"/>
<path d="M157.716 122.419L124.904 129.608L146.02 154.321L178.342 147.239L157.716 122.419Z" fill="white" stroke="white"/>
<path d="M164.362 111.318L131.075 119.866L153.336 144.643L186.99 136.001L164.362 111.318Z" fill="#535355"/>
<path d="M171.716 103.261L138.904 110.451L160.02 135.163L192.342 128.081L171.716 103.261Z" fill="white" stroke="white"/>
<path d="M122.904 25.9632L32.9037 197.32L77.4037 197.32L145.404 65.8755L122.904 25.9632Z" fill="white" stroke="white"/>
<path d="M187.904 50.9749L163.403 90.8743L220.404 197.32L266.227 197.32L187.904 50.9749Z" fill="white" stroke="white"/>
<path d="M161.403 87.6943L124.903 22.7703C127.015 19.127 130.251 12.5962 133.404 8.40183C135.404 5.741 137.403 3.65573 140.904 2.01588C140.904 2.01588 143.404 0.908124 147.939 0.908143C152.475 0.908161 156.617 1.95542 161.904 8.40185C167.191 14.8483 186.051 48.0348 186.051 48.0348L161.403 87.6943Z" fill="#F08829" stroke="#F08829"/>
<path d="M308.909 206.364C301.939 206.364 295.955 204.833 290.955 201.773C285.985 198.712 282.152 194.485 279.455 189.091C276.788 183.667 275.455 177.424 275.455 170.364C275.455 163.273 276.818 157.015 279.545 151.591C282.273 146.136 286.121 141.894 291.091 138.864C296.091 135.803 302 134.273 308.818 134.273C314.485 134.273 319.5 135.318 323.864 137.409C328.258 139.47 331.758 142.394 334.364 146.182C336.97 149.939 338.455 154.333 338.818 159.364H323.091C322.455 156 320.939 153.197 318.545 150.955C316.182 148.682 313.015 147.545 309.045 147.545C305.682 147.545 302.727 148.455 300.182 150.273C297.636 152.061 295.652 154.636 294.227 158C292.833 161.364 292.136 165.394 292.136 170.091C292.136 174.848 292.833 178.939 294.227 182.364C295.621 185.758 297.576 188.379 300.091 190.227C302.636 192.045 305.621 192.955 309.045 192.955C311.47 192.955 313.636 192.5 315.545 191.591C317.485 190.652 319.106 189.303 320.409 187.545C321.712 185.788 322.606 183.652 323.091 181.136H338.818C338.424 186.076 336.97 190.455 334.455 194.273C331.939 198.061 328.515 201.03 324.182 203.182C319.848 205.303 314.758 206.364 308.909 206.364ZM372.42 206.409C367.996 206.409 364.011 205.621 360.466 204.045C356.951 202.439 354.163 200.076 352.102 196.955C350.072 193.833 349.057 189.985 349.057 185.409C349.057 181.47 349.784 178.212 351.239 175.636C352.693 173.061 354.678 171 357.193 169.455C359.708 167.909 362.542 166.742 365.693 165.955C368.875 165.136 372.163 164.545 375.557 164.182C379.648 163.758 382.966 163.379 385.511 163.045C388.057 162.682 389.905 162.136 391.057 161.409C392.239 160.652 392.83 159.485 392.83 157.909V157.636C392.83 154.212 391.814 151.561 389.784 149.682C387.754 147.803 384.83 146.864 381.011 146.864C376.981 146.864 373.784 147.742 371.42 149.5C369.087 151.258 367.511 153.333 366.693 155.727L351.33 153.545C352.542 149.303 354.542 145.758 357.33 142.909C360.117 140.03 363.527 137.879 367.557 136.455C371.587 135 376.042 134.273 380.92 134.273C384.284 134.273 387.633 134.667 390.966 135.455C394.299 136.242 397.345 137.545 400.102 139.364C402.86 141.152 405.072 143.591 406.739 146.682C408.436 149.773 409.284 153.636 409.284 158.273V205H393.466V195.409H392.92C391.92 197.348 390.511 199.167 388.693 200.864C386.905 202.53 384.648 203.879 381.92 204.909C379.223 205.909 376.057 206.409 372.42 206.409ZM376.693 194.318C379.996 194.318 382.86 193.667 385.284 192.364C387.708 191.03 389.572 189.273 390.875 187.091C392.208 184.909 392.875 182.53 392.875 179.955V171.727C392.36 172.152 391.481 172.545 390.239 172.909C389.027 173.273 387.663 173.591 386.148 173.864C384.633 174.136 383.133 174.379 381.648 174.591C380.163 174.803 378.875 174.985 377.784 175.136C375.33 175.47 373.133 176.015 371.193 176.773C369.254 177.53 367.723 178.591 366.602 179.955C365.481 181.288 364.92 183.015 364.92 185.136C364.92 188.167 366.027 190.455 368.239 192C370.451 193.545 373.269 194.318 376.693 194.318ZM451.739 206.227C446.254 206.227 441.345 204.818 437.011 202C432.678 199.182 429.254 195.091 426.739 189.727C424.223 184.364 422.966 177.848 422.966 170.182C422.966 162.424 424.239 155.879 426.784 150.545C429.36 145.182 432.83 141.136 437.193 138.409C441.557 135.652 446.42 134.273 451.784 134.273C455.875 134.273 459.239 134.97 461.875 136.364C464.511 137.727 466.602 139.379 468.148 141.318C469.693 143.227 470.89 145.03 471.739 146.727H472.42V111.909H488.92V205H472.739V194H471.739C470.89 195.697 469.663 197.5 468.057 199.409C466.451 201.288 464.33 202.894 461.693 204.227C459.057 205.561 455.739 206.227 451.739 206.227ZM456.33 192.727C459.814 192.727 462.784 191.788 465.239 189.909C467.693 188 469.557 185.348 470.83 181.955C472.102 178.561 472.739 174.606 472.739 170.091C472.739 165.576 472.102 161.652 470.83 158.318C469.587 154.985 467.739 152.394 465.284 150.545C462.86 148.697 459.875 147.773 456.33 147.773C452.663 147.773 449.602 148.727 447.148 150.636C444.693 152.545 442.845 155.182 441.602 158.545C440.36 161.909 439.739 165.758 439.739 170.091C439.739 174.455 440.36 178.348 441.602 181.773C442.875 185.167 444.739 187.848 447.193 189.818C449.678 191.758 452.723 192.727 456.33 192.727ZM537.364 206.364C530.364 206.364 524.318 204.909 519.227 202C514.167 199.061 510.273 194.909 507.545 189.545C504.818 184.152 503.455 177.803 503.455 170.5C503.455 163.318 504.818 157.015 507.545 151.591C510.303 146.136 514.152 141.894 519.091 138.864C524.03 135.803 529.833 134.273 536.5 134.273C540.803 134.273 544.864 134.97 548.682 136.364C552.53 137.727 555.924 139.848 558.864 142.727C561.833 145.606 564.167 149.273 565.864 153.727C567.561 158.152 568.409 163.424 568.409 169.545V174.591H511.182V163.5H552.636C552.606 160.348 551.924 157.545 550.591 155.091C549.258 152.606 547.394 150.652 545 149.227C542.636 147.803 539.879 147.091 536.727 147.091C533.364 147.091 530.409 147.909 527.864 149.545C525.318 151.152 523.333 153.273 521.909 155.909C520.515 158.515 519.803 161.379 519.773 164.5V174.182C519.773 178.242 520.515 181.727 522 184.636C523.485 187.515 525.561 189.727 528.227 191.273C530.894 192.788 534.015 193.545 537.591 193.545C539.985 193.545 542.152 193.212 544.091 192.545C546.03 191.848 547.712 190.833 549.136 189.5C550.561 188.167 551.636 186.515 552.364 184.545L567.727 186.273C566.758 190.333 564.909 193.879 562.182 196.909C559.485 199.909 556.03 202.242 551.818 203.909C547.606 205.545 542.788 206.364 537.364 206.364ZM582.33 205V135.182H598.057V147.045H598.875C600.33 143.045 602.739 139.924 606.102 137.682C609.466 135.409 613.481 134.273 618.148 134.273C622.875 134.273 626.86 135.424 630.102 137.727C633.375 140 635.678 143.106 637.011 147.045H637.739C639.284 143.167 641.89 140.076 645.557 137.773C649.254 135.439 653.633 134.273 658.693 134.273C665.117 134.273 670.36 136.303 674.42 140.364C678.481 144.424 680.511 150.348 680.511 158.136V205H664.011V160.682C664.011 156.348 662.86 153.182 660.557 151.182C658.254 149.152 655.436 148.136 652.102 148.136C648.133 148.136 645.027 149.379 642.784 151.864C640.572 154.318 639.466 157.515 639.466 161.455V205H623.33V160C623.33 156.394 622.239 153.515 620.057 151.364C617.905 149.212 615.087 148.136 611.602 148.136C609.239 148.136 607.087 148.742 605.148 149.955C603.208 151.136 601.663 152.818 600.511 155C599.36 157.152 598.784 159.667 598.784 162.545V205H582.33ZM704.932 231.182C702.689 231.182 700.614 231 698.705 230.636C696.826 230.303 695.326 229.909 694.205 229.455L698.023 216.636C700.417 217.333 702.553 217.667 704.432 217.636C706.311 217.606 707.962 217.015 709.386 215.864C710.841 214.742 712.068 212.864 713.068 210.227L714.477 206.455L689.159 135.182H706.614L722.705 187.909H723.432L739.568 135.182H757.068L729.114 213.455C727.811 217.152 726.083 220.318 723.932 222.955C721.78 225.621 719.144 227.652 716.023 229.045C712.932 230.47 709.235 231.182 704.932 231.182Z" fill="white"/>
<path d="M229.182 98V4.90909H246.045V83.8636H287.045V98H229.182Z" fill="white"/>
<path d="M355.545 33.6364C354.788 31.1818 353.742 28.9848 352.409 27.0455C351.106 25.0758 349.53 23.3939 347.682 22C345.864 20.6061 343.773 19.5606 341.409 18.8636C339.045 18.1364 336.47 17.7727 333.682 17.7727C328.682 17.7727 324.227 19.0303 320.318 21.5455C316.409 24.0606 313.333 27.7576 311.091 32.6364C308.879 37.4848 307.773 43.3939 307.773 50.3636C307.773 57.3939 308.879 63.3485 311.091 68.2273C313.303 73.1061 316.379 76.8182 320.318 79.3636C324.258 81.8788 328.833 83.1364 334.045 83.1364C338.773 83.1364 342.864 82.2273 346.318 80.4091C349.803 78.5909 352.485 76.0152 354.364 72.6818C356.242 69.3182 357.182 65.3788 357.182 60.8636L361 61.4545H335.727V48.2727H373.5V59.4545C373.5 67.4242 371.803 74.3182 368.409 80.1364C365.015 85.9545 360.348 90.4394 354.409 93.5909C348.47 96.7121 341.652 98.2727 333.955 98.2727C325.379 98.2727 317.848 96.3485 311.364 92.5C304.909 88.6212 299.864 83.1212 296.227 76C292.621 68.8485 290.818 60.3636 290.818 50.5455C290.818 43.0303 291.879 36.3182 294 30.4091C296.152 24.5 299.152 19.4848 303 15.3636C306.848 11.2121 311.364 8.0606 316.545 5.90909C321.727 3.72727 327.364 2.63636 333.455 2.63636C338.606 2.63636 343.409 3.39394 347.864 4.90909C352.318 6.39394 356.273 8.51515 359.727 11.2727C363.212 14.0303 366.076 17.303 368.318 21.0909C370.561 24.8788 372.03 29.0606 372.727 33.6364H355.545Z" fill="#F08829"/>
<path d="M472.364 50.4545C472.364 60.4848 470.485 69.0758 466.727 76.2273C463 83.3485 457.909 88.803 451.455 92.5909C445.03 96.3788 437.742 98.2727 429.591 98.2727C421.439 98.2727 414.136 96.3788 407.682 92.5909C401.258 88.7727 396.167 83.303 392.409 76.1818C388.682 69.0303 386.818 60.4545 386.818 50.4545C386.818 40.4242 388.682 31.8485 392.409 24.7273C396.167 17.5758 401.258 12.1061 407.682 8.31818C414.136 4.5303 421.439 2.63636 429.591 2.63636C437.742 2.63636 445.03 4.5303 451.455 8.31818C457.909 12.1061 463 17.5758 466.727 24.7273C470.485 31.8485 472.364 40.4242 472.364 50.4545ZM455.409 50.4545C455.409 43.3939 454.303 37.4394 452.091 32.5909C449.909 27.7121 446.879 24.0303 443 21.5455C439.121 19.0303 434.652 17.7727 429.591 17.7727C424.53 17.7727 420.061 19.0303 416.182 21.5455C412.303 24.0303 409.258 27.7121 407.045 32.5909C404.864 37.4394 403.773 43.3939 403.773 50.4545C403.773 57.5151 404.864 63.4848 407.045 68.3636C409.258 73.2121 412.303 76.8939 416.182 79.4091C420.061 81.8939 424.53 83.1364 429.591 83.1364C434.652 83.1364 439.121 81.8939 443 79.4091C446.879 76.8939 449.909 73.2121 452.091 68.3636C454.303 63.4848 455.409 57.5151 455.409 50.4545Z" fill="white"/>
<path d="M34.2955 256V232.727H38.5114V252.466H48.7614V256H34.2955ZM62.0205 256V232.727H77.1568V236.261H66.2364V242.58H76.3727V246.114H66.2364V252.466H77.2477V256H62.0205ZM94.1716 232.727L100.228 251.045H100.467L106.513 232.727H111.149L102.944 256H97.7398L89.5466 232.727H94.1716ZM123.814 256V232.727H138.951V236.261H128.03V242.58H138.166V246.114H128.03V252.466H139.041V256H123.814ZM152.852 256V232.727H157.068V252.466H167.318V256H152.852ZM212.785 232.727H217.001V247.932C217.001 249.598 216.607 251.064 215.819 252.33C215.038 253.595 213.94 254.583 212.523 255.295C211.107 256 209.451 256.352 207.557 256.352C205.656 256.352 203.997 256 202.58 255.295C201.163 254.583 200.065 253.595 199.285 252.33C198.504 251.064 198.114 249.598 198.114 247.932V232.727H202.33V247.58C202.33 248.549 202.542 249.413 202.966 250.17C203.398 250.928 204.004 251.523 204.785 251.955C205.565 252.379 206.489 252.591 207.557 252.591C208.626 252.591 209.55 252.379 210.33 251.955C211.118 251.523 211.724 250.928 212.148 250.17C212.573 249.413 212.785 248.549 212.785 247.58V232.727ZM231.183 256V232.727H239.91C241.698 232.727 243.198 233.061 244.41 233.727C245.63 234.394 246.55 235.311 247.172 236.477C247.8 237.636 248.115 238.955 248.115 240.432C248.115 241.924 247.8 243.25 247.172 244.409C246.543 245.568 245.615 246.481 244.387 247.148C243.16 247.807 241.649 248.136 239.853 248.136H234.069V244.67H239.285C240.331 244.67 241.187 244.489 241.853 244.125C242.52 243.761 243.012 243.261 243.331 242.625C243.656 241.989 243.819 241.258 243.819 240.432C243.819 239.606 243.656 238.879 243.331 238.25C243.012 237.621 242.516 237.133 241.842 236.784C241.175 236.428 240.316 236.25 239.262 236.25H235.399V256H231.183ZM277.323 232.727H282.085L287.778 243.023H288.005L293.698 232.727H298.46L289.994 247.318V256H285.789V247.318L277.323 232.727ZM330.528 244.364C330.528 246.871 330.059 249.019 329.119 250.807C328.188 252.587 326.915 253.951 325.301 254.898C323.695 255.845 321.873 256.318 319.835 256.318C317.797 256.318 315.972 255.845 314.358 254.898C312.752 253.943 311.479 252.576 310.54 250.795C309.608 249.008 309.142 246.864 309.142 244.364C309.142 241.856 309.608 239.712 310.54 237.932C311.479 236.144 312.752 234.777 314.358 233.83C315.972 232.883 317.797 232.409 319.835 232.409C321.873 232.409 323.695 232.883 325.301 233.83C326.915 234.777 328.188 236.144 329.119 237.932C330.059 239.712 330.528 241.856 330.528 244.364ZM326.29 244.364C326.29 242.598 326.013 241.11 325.46 239.898C324.915 238.678 324.157 237.758 323.188 237.136C322.218 236.508 321.1 236.193 319.835 236.193C318.57 236.193 317.453 236.508 316.483 237.136C315.513 237.758 314.752 238.678 314.199 239.898C313.653 241.11 313.381 242.598 313.381 244.364C313.381 246.129 313.653 247.621 314.199 248.841C314.752 250.053 315.513 250.973 316.483 251.602C317.453 252.223 318.57 252.534 319.835 252.534C321.1 252.534 322.218 252.223 323.188 251.602C324.157 250.973 324.915 250.053 325.46 248.841C326.013 247.621 326.29 246.129 326.29 244.364ZM358.785 232.727H363.001V247.932C363.001 249.598 362.607 251.064 361.819 252.33C361.038 253.595 359.94 254.583 358.523 255.295C357.107 256 355.451 256.352 353.557 256.352C351.656 256.352 349.997 256 348.58 255.295C347.163 254.583 346.065 253.595 345.285 252.33C344.504 251.064 344.114 249.598 344.114 247.932V232.727H348.33V247.58C348.33 248.549 348.542 249.413 348.966 250.17C349.398 250.928 350.004 251.523 350.785 251.955C351.565 252.379 352.489 252.591 353.557 252.591C354.626 252.591 355.55 252.379 356.33 251.955C357.118 251.523 357.724 250.928 358.148 250.17C358.573 249.413 358.785 248.549 358.785 247.58V232.727ZM377.183 256V232.727H385.91C387.698 232.727 389.198 233.038 390.41 233.659C391.63 234.28 392.55 235.152 393.172 236.273C393.8 237.386 394.115 238.686 394.115 240.17C394.115 241.663 393.797 242.958 393.16 244.057C392.531 245.148 391.603 245.992 390.376 246.591C389.149 247.182 387.641 247.477 385.853 247.477H379.638V243.977H385.285C386.331 243.977 387.187 243.833 387.853 243.545C388.52 243.25 389.013 242.822 389.331 242.261C389.656 241.693 389.819 240.996 389.819 240.17C389.819 239.345 389.656 238.64 389.331 238.057C389.005 237.466 388.509 237.019 387.842 236.716C387.175 236.405 386.316 236.25 385.263 236.25H381.399V256H377.183ZM389.206 245.455L394.967 256H390.263L384.603 245.455H389.206ZM437.781 239.125C437.675 238.133 437.228 237.36 436.44 236.807C435.659 236.254 434.644 235.977 433.394 235.977C432.516 235.977 431.762 236.11 431.133 236.375C430.504 236.64 430.023 237 429.69 237.455C429.356 237.909 429.186 238.428 429.178 239.011C429.178 239.496 429.288 239.917 429.508 240.273C429.735 240.629 430.042 240.932 430.428 241.182C430.815 241.424 431.243 241.629 431.712 241.795C432.182 241.962 432.656 242.102 433.133 242.216L435.315 242.761C436.194 242.966 437.038 243.242 437.849 243.591C438.667 243.939 439.398 244.379 440.042 244.909C440.694 245.439 441.209 246.08 441.587 246.83C441.966 247.58 442.156 248.458 442.156 249.466C442.156 250.83 441.807 252.03 441.11 253.068C440.413 254.098 439.406 254.905 438.087 255.489C436.777 256.064 435.19 256.352 433.326 256.352C431.516 256.352 429.944 256.072 428.61 255.511C427.284 254.951 426.247 254.133 425.497 253.057C424.754 251.981 424.353 250.67 424.292 249.125H428.44C428.5 249.936 428.75 250.61 429.19 251.148C429.629 251.686 430.201 252.087 430.906 252.352C431.618 252.617 432.413 252.75 433.292 252.75C434.209 252.75 435.012 252.614 435.701 252.341C436.398 252.061 436.944 251.674 437.337 251.182C437.731 250.682 437.932 250.098 437.94 249.432C437.932 248.826 437.754 248.326 437.406 247.932C437.057 247.53 436.569 247.197 435.94 246.932C435.319 246.659 434.591 246.417 433.758 246.205L431.11 245.523C429.194 245.03 427.678 244.284 426.565 243.284C425.459 242.277 424.906 240.939 424.906 239.273C424.906 237.902 425.277 236.701 426.019 235.67C426.769 234.64 427.788 233.841 429.076 233.273C430.364 232.697 431.822 232.409 433.451 232.409C435.103 232.409 436.55 232.697 437.792 233.273C439.042 233.841 440.023 234.633 440.735 235.648C441.447 236.655 441.815 237.814 441.837 239.125H437.781ZM455.514 256V232.727H459.73V243.42H460.014L469.094 232.727H474.241L465.241 243.17L474.321 256H469.253L462.31 246.023L459.73 249.068V256H455.514ZM490.986 232.727V256H486.77V232.727H490.986ZM505.152 256V232.727H509.368V252.466H519.618V256H505.152ZM532.877 256V232.727H537.093V252.466H547.343V256H532.877ZM573.249 239.125C573.143 238.133 572.696 237.36 571.909 236.807C571.128 236.254 570.113 235.977 568.863 235.977C567.984 235.977 567.231 236.11 566.602 236.375C565.973 236.64 565.492 237 565.159 237.455C564.825 237.909 564.655 238.428 564.647 239.011C564.647 239.496 564.757 239.917 564.977 240.273C565.204 240.629 565.511 240.932 565.897 241.182C566.284 241.424 566.712 241.629 567.181 241.795C567.651 241.962 568.124 242.102 568.602 242.216L570.784 242.761C571.662 242.966 572.507 243.242 573.318 243.591C574.136 243.939 574.867 244.379 575.511 244.909C576.162 245.439 576.677 246.08 577.056 246.83C577.435 247.58 577.624 248.458 577.624 249.466C577.624 250.83 577.276 252.03 576.579 253.068C575.882 254.098 574.874 254.905 573.556 255.489C572.246 256.064 570.659 256.352 568.795 256.352C566.984 256.352 565.412 256.072 564.079 255.511C562.753 254.951 561.715 254.133 560.965 253.057C560.223 251.981 559.821 250.67 559.761 249.125H563.909C563.969 249.936 564.219 250.61 564.659 251.148C565.098 251.686 565.67 252.087 566.374 252.352C567.087 252.617 567.882 252.75 568.761 252.75C569.677 252.75 570.481 252.614 571.17 252.341C571.867 252.061 572.412 251.674 572.806 251.182C573.2 250.682 573.401 250.098 573.409 249.432C573.401 248.826 573.223 248.326 572.874 247.932C572.526 247.53 572.037 247.197 571.409 246.932C570.787 246.659 570.06 246.417 569.227 246.205L566.579 245.523C564.662 245.03 563.147 244.284 562.034 243.284C560.927 242.277 560.374 240.939 560.374 239.273C560.374 237.902 560.746 236.701 561.488 235.67C562.238 234.64 563.257 233.841 564.545 233.273C565.833 232.697 567.291 232.409 568.92 232.409C570.571 232.409 572.018 232.697 573.261 233.273C574.511 233.841 575.492 234.633 576.204 235.648C576.916 236.655 577.284 237.814 577.306 239.125H573.249Z" fill="white"/>
<path opacity="0.1" d="M114.998 25.761L24.9064 196.291L69.6078 196.025L137.498 65.3623L114.998 25.761Z" fill="white" stroke="white"/>
<path opacity="0.1" d="M179.998 50.5778L155.497 90.1662L212.734 196.794L258.215 196.794L179.998 50.5778Z" fill="white" stroke="white"/>
<path opacity="0.1" d="M153.512 87.0189L117.001 22.593C119.112 18.9785 122.347 12.499 125.499 8.33794C127.499 5.69819 129.498 3.62953 132.998 2.00311C132.998 2.00311 135.498 0.904447 140.033 0.905334C144.569 0.90622 148.711 1.94613 153.999 8.34341C159.287 14.7407 178.152 47.6726 178.152 47.6726L153.512 87.0189Z" fill="#F08829" stroke="#F08829"/>
</g>
<defs>
<clipPath id="clip0_23_2">
<rect width="874" height="265" fill="white"/>
</clipPath>
</defs>
</svg>
