<svg width="863" height="92" viewBox="0 0 863 92" fill="none" xmlns="http://www.w3.org/2000/svg">
<path d="M18.408 72L0.456 5.952H8.904L23.592 61.248H24.168L40.296 5.952H48.936L65.16 61.248H65.736L80.04 5.952H88.296L70.344 72H60.552L44.616 18.528H44.232L28.296 72H18.408ZM100.037 72V0.671997H107.909V29.472H108.389C109.029 28.128 109.957 26.912 111.173 25.824C112.389 24.736 114.053 23.904 116.165 23.328C118.277 22.688 120.965 22.368 124.229 22.368C127.813 22.368 130.693 22.752 132.869 23.52C135.109 24.224 136.805 25.344 137.957 26.88C139.173 28.416 139.973 30.4 140.357 32.832C140.741 35.2 140.933 38.048 140.933 41.376V72H133.157V44.064C133.157 40.736 132.997 38.112 132.677 36.192C132.421 34.208 131.877 32.736 131.045 31.776C130.213 30.752 128.997 30.08 127.397 29.76C125.797 29.44 123.685 29.28 121.061 29.28C117.925 29.28 115.461 29.696 113.669 30.528C111.877 31.296 110.565 32.448 109.733 33.984C108.901 35.456 108.389 37.28 108.197 39.456C108.005 41.568 107.909 44 107.909 46.752V72H100.037ZM176.322 91.776C174.466 91.776 172.514 91.712 170.466 91.584C168.482 91.52 166.562 91.424 164.706 91.296C162.914 91.232 161.314 91.104 159.906 90.912V84.672C162.018 84.736 163.938 84.8 165.666 84.864C167.458 84.992 169.09 85.056 170.562 85.056C172.098 85.12 173.474 85.152 174.69 85.152C178.402 85.152 181.314 84.864 183.426 84.288C185.602 83.712 187.202 82.752 188.226 81.408C189.25 80.128 189.89 78.4 190.146 76.224C190.466 74.048 190.626 71.392 190.626 68.256V65.376H190.05C189.538 66.656 188.674 67.84 187.458 68.928C186.242 70.016 184.578 70.88 182.466 71.52C180.354 72.16 177.602 72.48 174.21 72.48C170.626 72.48 167.714 72.128 165.474 71.424C163.298 70.656 161.634 69.504 160.482 67.968C159.33 66.368 158.53 64.384 158.082 62.016C157.698 59.648 157.506 56.832 157.506 53.568V23.04H165.378V50.784C165.378 54.112 165.506 56.768 165.762 58.752C166.018 60.736 166.562 62.24 167.394 63.264C168.29 64.224 169.538 64.864 171.138 65.184C172.738 65.504 174.818 65.664 177.378 65.664C180.578 65.664 183.074 65.28 184.866 64.512C186.658 63.68 187.938 62.496 188.706 60.96C189.538 59.424 190.05 57.6 190.242 55.488C190.498 53.312 190.626 50.88 190.626 48.192V23.04H198.402V65.952C198.402 70.624 198.146 74.592 197.634 77.856C197.186 81.184 196.194 83.84 194.658 85.824C193.186 87.872 190.978 89.376 188.034 90.336C185.09 91.296 181.186 91.776 176.322 91.776ZM232.001 72L256.961 5.952H267.329L292.193 72H283.649L276.833 53.952H247.169L240.353 72H232.001ZM249.665 46.752H274.337L262.241 14.4H261.761L249.665 46.752ZM303.194 72V0.671997H311.066V72H303.194ZM345.521 91.776C343.473 91.776 341.361 91.712 339.185 91.584C337.073 91.52 335.057 91.424 333.137 91.296C331.217 91.168 329.585 91.04 328.241 90.912V84.576C329.777 84.704 331.473 84.8 333.329 84.864C335.185 84.992 337.009 85.056 338.801 85.056C340.657 85.12 342.321 85.152 343.793 85.152C347.505 85.152 350.417 84.896 352.529 84.384C354.641 83.872 356.241 82.976 357.329 81.696C358.417 80.416 359.089 78.624 359.345 76.32C359.665 74.016 359.825 71.072 359.825 67.488V65.472H359.345C358.513 67.264 357.361 68.672 355.889 69.696C354.417 70.72 352.657 71.456 350.609 71.904C348.561 72.288 346.225 72.48 343.601 72.48C340.017 72.48 337.041 72.096 334.673 71.328C332.369 70.56 330.545 69.28 329.201 67.488C327.857 65.632 326.897 63.072 326.321 59.808C325.809 56.544 325.553 52.448 325.553 47.52C325.553 42.528 325.841 38.4 326.417 35.136C326.993 31.872 327.953 29.312 329.297 27.456C330.641 25.6 332.465 24.288 334.769 23.52C337.137 22.688 340.113 22.272 343.697 22.272C345.873 22.272 348.017 22.464 350.129 22.848C352.241 23.168 354.129 23.904 355.793 25.056C357.521 26.208 358.833 27.872 359.729 30.048H360.305L360.689 23.04H367.697V65.664C367.697 70.4 367.441 74.432 366.929 77.76C366.481 81.088 365.521 83.776 364.049 85.824C362.577 87.872 360.369 89.376 357.425 90.336C354.481 91.296 350.513 91.776 345.521 91.776ZM346.673 65.664C349.873 65.664 352.401 65.248 354.257 64.416C356.113 63.52 357.457 62.144 358.289 60.288C358.993 58.752 359.409 56.928 359.537 54.816C359.729 52.704 359.825 50.24 359.825 47.424C359.825 44.736 359.761 42.368 359.633 40.32C359.505 38.208 359.089 36.416 358.385 34.944C357.553 32.896 356.177 31.424 354.257 30.528C352.337 29.632 349.809 29.184 346.673 29.184C343.729 29.184 341.361 29.408 339.569 29.856C337.841 30.24 336.529 31.04 335.633 32.256C334.737 33.472 334.129 35.296 333.809 37.728C333.489 40.16 333.329 43.392 333.329 47.424C333.329 51.456 333.489 54.688 333.809 57.12C334.129 59.552 334.737 61.376 335.633 62.592C336.529 63.808 337.841 64.64 339.569 65.088C341.361 65.472 343.729 65.664 346.673 65.664ZM403.586 72.768C399.554 72.768 396.194 72.512 393.506 72C390.882 71.552 388.802 70.784 387.266 69.696C385.73 68.608 384.578 67.104 383.81 65.184C383.106 63.264 382.658 60.864 382.466 57.984C382.274 55.04 382.178 51.552 382.178 47.52C382.178 43.488 382.274 40.032 382.466 37.152C382.658 34.208 383.106 31.776 383.81 29.856C384.578 27.936 385.73 26.432 387.266 25.344C388.802 24.256 390.882 23.488 393.506 23.04C396.194 22.528 399.554 22.272 403.586 22.272C407.682 22.272 411.042 22.528 413.666 23.04C416.29 23.488 418.37 24.256 419.906 25.344C421.506 26.432 422.658 27.936 423.362 29.856C424.13 31.776 424.61 34.208 424.802 37.152C424.994 40.032 425.09 43.488 425.09 47.52C425.09 51.552 424.994 55.04 424.802 57.984C424.61 60.864 424.13 63.264 423.362 65.184C422.658 67.104 421.506 68.608 419.906 69.696C418.37 70.784 416.29 71.552 413.666 72C411.042 72.512 407.682 72.768 403.586 72.768ZM403.586 66.144C407.042 66.144 409.698 65.92 411.554 65.472C413.41 65.024 414.722 64.16 415.49 62.88C416.322 61.6 416.802 59.744 416.93 57.312C417.122 54.816 417.218 51.552 417.218 47.52C417.218 43.488 417.122 40.256 416.93 37.824C416.802 35.328 416.322 33.44 415.49 32.16C414.722 30.88 413.41 30.016 411.554 29.568C409.698 29.12 407.042 28.896 403.586 28.896C400.194 28.896 397.538 29.12 395.618 29.568C393.762 30.016 392.45 30.88 391.682 32.16C390.914 33.44 390.434 35.328 390.242 37.824C390.05 40.256 389.954 43.488 389.954 47.52C389.954 51.552 390.05 54.816 390.242 57.312C390.434 59.744 390.914 61.6 391.682 62.88C392.45 64.16 393.762 65.024 395.618 65.472C397.538 65.92 400.194 66.144 403.586 66.144ZM456.626 72L481.586 5.952H491.954L516.818 72H508.274L501.458 53.952H471.794L464.978 72H456.626ZM474.29 46.752H498.962L486.866 14.4H486.386L474.29 46.752ZM545.675 72.768C541.963 72.768 538.891 72.448 536.459 71.808C534.091 71.168 532.171 70.208 530.699 68.928C529.291 67.648 528.235 66.016 527.531 64.032C526.827 62.048 526.347 59.68 526.091 56.928C525.899 54.176 525.803 51.04 525.803 47.52C525.803 43.872 525.931 40.672 526.187 37.92C526.507 35.168 527.051 32.8 527.819 30.816C528.651 28.768 529.771 27.136 531.179 25.92C532.651 24.704 534.539 23.808 536.843 23.232C539.147 22.592 541.995 22.272 545.387 22.272C547.627 22.272 549.963 22.4 552.395 22.656C554.891 22.848 556.939 23.136 558.539 23.52V29.856C557.067 29.6 555.243 29.376 553.067 29.184C550.955 28.992 549.035 28.896 547.307 28.896C544.299 28.896 541.867 29.152 540.011 29.664C538.219 30.176 536.843 31.104 535.883 32.448C534.987 33.792 534.379 35.68 534.059 38.112C533.739 40.544 533.579 43.68 533.579 47.52C533.579 51.424 533.739 54.624 534.059 57.12C534.379 59.552 535.019 61.44 535.979 62.784C537.003 64.064 538.411 64.96 540.203 65.472C542.059 65.92 544.491 66.144 547.499 66.144C549.291 66.144 551.243 66.048 553.355 65.856C555.467 65.664 557.355 65.44 559.019 65.184V71.52C557.419 71.84 555.371 72.128 552.875 72.384C550.379 72.64 547.979 72.768 545.675 72.768ZM585.127 72.768C581.543 72.768 578.535 72.352 576.103 71.52C573.735 70.688 571.943 69.248 570.727 67.2C569.575 65.152 568.999 62.272 568.999 58.56C568.999 54.848 569.415 51.936 570.247 49.824C571.143 47.648 572.679 46.112 574.855 45.216C577.031 44.32 580.071 43.872 583.975 43.872C584.615 43.872 585.607 43.904 586.951 43.968C588.359 43.968 589.959 44 591.751 44.064C593.543 44.064 595.335 44.096 597.127 44.16C598.983 44.16 600.679 44.192 602.215 44.256V41.184C602.215 38.304 602.023 36.064 601.639 34.464C601.319 32.8 600.615 31.584 599.527 30.816C598.439 29.984 596.903 29.472 594.919 29.28C592.999 29.024 590.439 28.896 587.239 28.896C585.831 28.896 584.167 28.96 582.247 29.088C580.327 29.152 578.439 29.28 576.583 29.472C574.791 29.6 573.351 29.76 572.263 29.952V23.616C574.695 23.168 577.415 22.848 580.423 22.656C583.495 22.4 586.663 22.272 589.927 22.272C593.383 22.272 596.295 22.496 598.663 22.944C601.095 23.328 603.047 23.968 604.519 24.864C606.055 25.76 607.207 26.944 607.975 28.416C608.743 29.888 609.255 31.68 609.511 33.792C609.831 35.904 609.991 38.368 609.991 41.184V72H602.983L602.695 65.088H602.119C601.095 67.328 599.623 69.024 597.703 70.176C595.847 71.264 593.799 71.968 591.559 72.288C589.319 72.608 587.175 72.768 585.127 72.768ZM588.007 66.336C589.863 66.336 591.591 66.24 593.191 66.048C594.791 65.792 596.199 65.344 597.415 64.704C598.631 64.064 599.591 63.104 600.295 61.824C600.999 60.48 601.479 59.04 601.735 57.504C602.055 55.904 602.215 54.048 602.215 51.936V49.44H585.895C583.399 49.44 581.479 49.632 580.135 50.016C578.791 50.4 577.863 51.2 577.351 52.416C576.903 53.632 576.679 55.456 576.679 57.888C576.679 60.256 576.967 62.048 577.543 63.264C578.119 64.48 579.207 65.312 580.807 65.76C582.471 66.144 584.871 66.336 588.007 66.336ZM642.663 72.768C639.143 72.768 636.199 72.384 633.831 71.616C631.527 70.848 629.703 69.536 628.359 67.68C627.015 65.76 626.055 63.168 625.479 59.904C624.903 56.64 624.615 52.544 624.615 47.616C624.615 42.624 624.871 38.496 625.383 35.232C625.959 31.904 626.919 29.312 628.263 27.456C629.607 25.6 631.431 24.288 633.735 23.52C636.039 22.688 638.951 22.272 642.471 22.272C645.095 22.272 647.431 22.496 649.479 22.944C651.527 23.328 653.287 24.032 654.759 25.056C656.295 26.08 657.511 27.488 658.407 29.28H658.887V0.671997H666.759V72H659.751L659.367 64.992H658.791C657.895 67.232 656.583 68.928 654.855 70.08C653.191 71.168 651.303 71.872 649.191 72.192C647.079 72.576 644.903 72.768 642.663 72.768ZM645.735 65.856C648.999 65.856 651.591 65.408 653.511 64.512C655.431 63.616 656.775 62.208 657.543 60.288C658.183 58.496 658.567 56.544 658.695 54.432C658.823 52.32 658.887 49.824 658.887 46.944C658.887 44.576 658.823 42.432 658.695 40.512C658.567 38.528 658.215 36.8 657.639 35.328C656.807 33.152 655.431 31.616 653.511 30.72C651.591 29.76 648.935 29.28 645.543 29.28C642.663 29.28 640.359 29.472 638.631 29.856C636.903 30.24 635.591 31.072 634.695 32.352C633.799 33.568 633.191 35.392 632.871 37.824C632.551 40.192 632.391 43.424 632.391 47.52C632.391 51.616 632.551 54.88 632.871 57.312C633.191 59.744 633.799 61.568 634.695 62.784C635.591 64 636.903 64.832 638.631 65.28C640.423 65.664 642.791 65.856 645.735 65.856ZM703.224 72.768C699.256 72.768 695.928 72.512 693.24 72C690.616 71.488 688.504 70.656 686.904 69.504C685.304 68.288 684.088 66.72 683.256 64.8C682.424 62.816 681.88 60.416 681.624 57.6C681.368 54.784 681.24 51.456 681.24 47.616C681.24 43.072 681.432 39.2 681.816 36C682.2 32.736 683.064 30.112 684.408 28.128C685.816 26.08 687.992 24.608 690.936 23.712C693.88 22.752 697.848 22.272 702.84 22.272C706.616 22.272 709.688 22.56 712.056 23.136C714.488 23.712 716.408 24.608 717.816 25.824C719.224 27.04 720.248 28.672 720.888 30.72C721.592 32.704 722.04 35.104 722.232 37.92C722.424 40.672 722.52 43.872 722.52 47.52V50.112H689.016C689.016 53.44 689.176 56.16 689.496 58.272C689.816 60.384 690.456 62.016 691.416 63.168C692.44 64.32 694.008 65.12 696.12 65.568C698.296 66.016 701.24 66.24 704.952 66.24C706.488 66.24 708.184 66.208 710.04 66.144C711.896 66.016 713.752 65.856 715.608 65.664C717.464 65.472 719.128 65.28 720.6 65.088V71.424C719.256 71.68 717.592 71.904 715.608 72.096C713.688 72.288 711.64 72.448 709.464 72.576C707.352 72.704 705.272 72.768 703.224 72.768ZM714.936 46.176V43.584C714.936 40.256 714.744 37.632 714.36 35.712C713.976 33.728 713.304 32.256 712.344 31.296C711.448 30.272 710.2 29.6 708.6 29.28C707 28.96 705.016 28.8 702.648 28.8C699.576 28.8 697.144 29.024 695.352 29.472C693.56 29.856 692.216 30.592 691.32 31.68C690.424 32.768 689.816 34.336 689.496 36.384C689.176 38.432 689.016 41.152 689.016 44.544H716.76L714.936 46.176ZM736.881 72V23.04H743.985L744.273 30.048H744.849C745.425 28.512 746.289 27.168 747.441 26.016C748.657 24.864 750.225 23.968 752.145 23.328C754.129 22.624 756.657 22.272 759.729 22.272C764.081 22.272 767.313 22.912 769.425 24.192C771.537 25.408 773.009 27.36 773.841 30.048H774.417C775.057 28.512 775.985 27.168 777.201 26.016C778.417 24.864 780.049 23.968 782.097 23.328C784.145 22.624 786.673 22.272 789.681 22.272C794.097 22.272 797.393 22.944 799.569 24.288C801.745 25.632 803.185 27.712 803.889 30.528C804.593 33.344 804.945 36.96 804.945 41.376V72H797.169V44.064C797.169 40.736 797.041 38.112 796.785 36.192C796.529 34.208 796.049 32.736 795.345 31.776C794.641 30.752 793.585 30.08 792.177 29.76C790.769 29.44 788.881 29.28 786.513 29.28C783.761 29.28 781.585 29.664 779.985 30.432C778.385 31.136 777.201 32.224 776.433 33.696C775.729 35.168 775.281 36.992 775.089 39.168C774.897 41.344 774.801 43.872 774.801 46.752V72H767.025V44.064C767.025 40.736 766.897 38.112 766.641 36.192C766.385 34.208 765.905 32.736 765.201 31.776C764.497 30.752 763.441 30.08 762.033 29.76C760.625 29.44 758.737 29.28 756.369 29.28C753.617 29.28 751.441 29.696 749.841 30.528C748.241 31.296 747.089 32.416 746.385 33.888C745.681 35.36 745.233 37.184 745.041 39.36C744.849 41.536 744.753 44 744.753 46.752V72H736.881ZM840.353 91.776C838.497 91.776 836.545 91.712 834.497 91.584C832.513 91.52 830.593 91.424 828.737 91.296C826.945 91.232 825.345 91.104 823.937 90.912V84.672C826.049 84.736 827.969 84.8 829.697 84.864C831.489 84.992 833.121 85.056 834.593 85.056C836.129 85.12 837.505 85.152 838.721 85.152C842.433 85.152 845.345 84.864 847.457 84.288C849.633 83.712 851.233 82.752 852.257 81.408C853.281 80.128 853.921 78.4 854.177 76.224C854.497 74.048 854.657 71.392 854.657 68.256V65.376H854.081C853.569 66.656 852.705 67.84 851.489 68.928C850.273 70.016 848.609 70.88 846.497 71.52C844.385 72.16 841.633 72.48 838.241 72.48C834.657 72.48 831.745 72.128 829.505 71.424C827.329 70.656 825.665 69.504 824.513 67.968C823.361 66.368 822.561 64.384 822.113 62.016C821.729 59.648 821.537 56.832 821.537 53.568V23.04H829.409V50.784C829.409 54.112 829.537 56.768 829.793 58.752C830.049 60.736 830.593 62.24 831.425 63.264C832.321 64.224 833.569 64.864 835.169 65.184C836.769 65.504 838.849 65.664 841.409 65.664C844.609 65.664 847.105 65.28 848.897 64.512C850.689 63.68 851.969 62.496 852.737 60.96C853.569 59.424 854.081 57.6 854.273 55.488C854.529 53.312 854.657 50.88 854.657 48.192V23.04H862.433V65.952C862.433 70.624 862.177 74.592 861.665 77.856C861.217 81.184 860.225 83.84 858.689 85.824C857.217 87.872 855.009 89.376 852.065 90.336C849.121 91.296 845.217 91.776 840.353 91.776Z" fill="#B8ABAB"/>
</svg>
